<?xml version="1.0" standalone="no"?>
<!DOCTYPE svg PUBLIC "-//W3C//DTD SVG 20010904//EN"
 "http://www.w3.org/TR/2001/REC-SVG-20010904/DTD/svg10.dtd">
<svg version="1.0" xmlns="http://www.w3.org/2000/svg"
 width="100.000000pt" height="100.000000pt" viewBox="0 0 100.000000 100.000000"
 preserveAspectRatio="xMidYMid meet">
<metadata>
Created by potrace 1.14, written by Peter Selinger 2001-2017
</metadata>
<g transform="translate(0.000000,100.000000) scale(0.100000,-0.100000)"
fill="#000000" stroke="none">
<path d="M262 924 c-14 -10 -22 -25 -22 -45 0 -19 -5 -29 -15 -29 -24 0 -87
-62 -106 -105 -21 -46 -24 -101 -8 -142 7 -15 13 -71 13 -123 2 -81 6 -102 28
-146 49 -95 111 -127 248 -128 84 -1 137 22 158 69 35 76 -11 130 -144 170
-173 51 -220 78 -253 143 -27 56 -33 89 -21 133 19 71 103 144 125 109 10 -17
61 -11 78 8 23 25 21 58 -3 82 -24 24 -48 25 -78 4z"/>
<path d="M353 780 c-40 -13 -63 -44 -63 -87 0 -54 35 -77 181 -119 52 -14 110
-35 130 -45 53 -26 96 -82 115 -146 15 -53 15 -60 0 -110 -17 -53 -62 -115
-97 -134 -14 -7 -26 -5 -48 12 -34 25 -64 19 -87 -15 -33 -51 31 -114 82 -81
13 8 26 26 30 39 3 14 18 29 34 36 40 16 86 68 110 123 19 44 21 61 17 173 -5
104 -9 132 -30 178 -30 66 -88 125 -152 156 -54 26 -168 36 -222 20z"/>
</g>
</svg>
